<svg xmlns="http://www.w3.org/2000/svg" viewBox="0 0 200 400" width="200" height="400">
  <!-- Gilles - Colleague explaining -->
  <defs>
    <linearGradient id="hoodie" x1="0%" y1="0%" x2="0%" y2="100%">
      <stop offset="0%" style="stop-color:#1565c0"/>
      <stop offset="100%" style="stop-color:#0d47a1"/>
    </linearGradient>
  </defs>
  <!-- Body/Hoodie -->
  <path d="M70 150 Q60 200 55 300 L55 380 L145 380 L145 300 Q140 200 130 150 Z" fill="url(#hoodie)"/>
  <!-- Hood strings -->
  <line x1="90" y1="150" x2="85" y2="200" stroke="white" stroke-width="2"/>
  <line x1="110" y1="150" x2="115" y2="200" stroke="white" stroke-width="2"/>
  <!-- Head -->
  <ellipse cx="100" cy="80" rx="38" ry="48" fill="#f0d0b0"/>
  <!-- Short hair -->
  <path d="M62 68 Q60 32 100 25 Q140 32 138 68 Q130 48 100 42 Q70 48 62 68" fill="#8b7355"/>
  <!-- Animated explaining eyes -->
  <ellipse cx="85" cy="75" rx="5" ry="5" fill="white"/>
  <ellipse cx="115" cy="75" rx="5" ry="5" fill="white"/>
  <ellipse cx="86" cy="76" rx="3" ry="3" fill="#2d2620"/>
  <ellipse cx="116" cy="76" rx="3" ry="3" fill="#2d2620"/>
  <!-- Talking mouth -->
  <ellipse cx="100" cy="98" rx="8" ry="5" fill="#8b4513"/>
  <!-- Arms gesturing while explaining -->
  <path d="M70 160 Q30 170 25 200" stroke="#f0d0b0" stroke-width="14" fill="none" stroke-linecap="round"/>
  <path d="M130 160 Q170 170 175 200" stroke="#f0d0b0" stroke-width="14" fill="none" stroke-linecap="round"/>
  <!-- Glasses -->
  <rect x="73" y="68" width="24" height="18" rx="3" stroke="#333" stroke-width="2" fill="none"/>
  <rect x="103" y="68" width="24" height="18" rx="3" stroke="#333" stroke-width="2" fill="none"/>
  <line x1="97" y1="75" x2="103" y2="75" stroke="#333" stroke-width="2"/>
</svg>