<svg xmlns="http://www.w3.org/2000/svg" viewBox="0 0 100 53">
  <!-- Keyboard body -->
  <rect x="5" y="8" width="90" height="45" rx="4" fill="#333" stroke="#555" stroke-width="2"/>

  <!-- Top row of keys -->
  <rect x="10" y="13" width="6" height="6" rx="1" fill="#555"/>
  <rect x="18" y="13" width="6" height="6" rx="1" fill="#555"/>
  <rect x="26" y="13" width="6" height="6" rx="1" fill="#555"/>
  <rect x="34" y="13" width="6" height="6" rx="1" fill="#555"/>
  <rect x="42" y="13" width="6" height="6" rx="1" fill="#555"/>
  <rect x="50" y="13" width="6" height="6" rx="1" fill="#555"/>
  <rect x="58" y="13" width="6" height="6" rx="1" fill="#555"/>
  <rect x="66" y="13" width="6" height="6" rx="1" fill="#555"/>
  <rect x="74" y="13" width="6" height="6" rx="1" fill="#555"/>
  <rect x="82" y="13" width="6" height="6" rx="1" fill="#555"/>

  <!-- Middle row of keys -->
  <rect x="12" y="21" width="6" height="6" rx="1" fill="#666"/>
  <rect x="20" y="21" width="6" height="6" rx="1" fill="#666"/>
  <rect x="28" y="21" width="6" height="6" rx="1" fill="#666"/>
  <rect x="36" y="21" width="6" height="6" rx="1" fill="#666"/>
  <rect x="44" y="21" width="6" height="6" rx="1" fill="#666"/>
  <rect x="52" y="21" width="6" height="6" rx="1" fill="#666"/>
  <rect x="60" y="21" width="6" height="6" rx="1" fill="#666"/>
  <rect x="68" y="21" width="6" height="6" rx="1" fill="#666"/>
  <rect x="76" y="21" width="6" height="6" rx="1" fill="#666"/>

  <!-- Bottom row of keys -->
  <rect x="14" y="29" width="6" height="6" rx="1" fill="#555"/>
  <rect x="22" y="29" width="6" height="6" rx="1" fill="#555"/>
  <rect x="30" y="29" width="6" height="6" rx="1" fill="#555"/>
  <rect x="38" y="29" width="6" height="6" rx="1" fill="#555"/>
  <rect x="46" y="29" width="6" height="6" rx="1" fill="#555"/>
  <rect x="54" y="29" width="6" height="6" rx="1" fill="#555"/>
  <rect x="62" y="29" width="6" height="6" rx="1" fill="#555"/>
  <rect x="70" y="29" width="6" height="6" rx="1" fill="#555"/>

  <!-- Spacebar -->
  <rect x="25" y="37" width="50" height="6" rx="1" fill="#666"/>

  <!-- Angry eyes above the keyboard -->
  <ellipse cx="35" cy="4" rx="5" ry="3" fill="#111"/>
  <ellipse cx="65" cy="4" rx="5" ry="3" fill="#111"/>
  <circle cx="33" cy="3.5" r="1.5" fill="#f00"/>
  <circle cx="63" cy="3.5" r="1.5" fill="#f00"/>

  <!-- Angry eyebrows -->
  <line x1="28" y1="0.5" x2="40" y2="2" stroke="#333" stroke-width="2"/>
  <line x1="72" y1="0.5" x2="60" y2="2" stroke="#333" stroke-width="2"/>
</svg>
